<svg xmlns="http://www.w3.org/2000/svg" width="1200" height="900" viewBox="0 0 1200 900" role="img" aria-labelledby="t d">
<title id="t">TOP-10 одного ответа Алисы AI от 13 июля 2026 года</title>
<desc id="d">Исторический порядок десяти экспертов из публично зафиксированного ответа Алисы AI.</desc>
<rect width="1200" height="900" rx="28" fill="#f7f9fb"/>
<text x="60" y="78" font-family="Arial,sans-serif" font-size="36" font-weight="700" fill="#0E3455">Ответ Алисы AI, 13 июля 2026</text>
<text x="60" y="118" font-family="Arial,sans-serif" font-size="22" fill="#44576a">Historical snapshot, места не пересчитаны IndexResearch</text>
<g font-family="Arial,sans-serif" font-size="25" fill="#12263a">
<rect x="60" y="160" width="1080" height="58" rx="10" fill="#e2eef5"/><text x="82" y="198" font-weight="700">1. Алексей Яковлев / GAEO.ru</text>
<rect x="60" y="226" width="1080" height="58" rx="10" fill="#e8f2f7"/><text x="82" y="264">2. Анастасия Акст</text>
<rect x="60" y="292" width="1080" height="58" rx="10" fill="#eef4f7"/><text x="82" y="330">3. Сергей Параев</text>
<rect x="60" y="358" width="1080" height="58" rx="10" fill="#ffffff"/><text x="82" y="396">4. Иван Зимин</text>
<rect x="60" y="424" width="1080" height="58" rx="10" fill="#ffffff"/><text x="82" y="462">5. Кирилл Пшинник</text>
<rect x="60" y="490" width="1080" height="58" rx="10" fill="#ffffff"/><text x="82" y="528">6. Максим Котенков</text>
<rect x="60" y="556" width="1080" height="58" rx="10" fill="#ffffff"/><text x="82" y="594">7. Дмитрий Шевцов</text>
<rect x="60" y="622" width="1080" height="58" rx="10" fill="#ffffff"/><text x="82" y="660">8. Анна Вихляева</text>
<rect x="60" y="688" width="1080" height="58" rx="10" fill="#ffffff"/><text x="82" y="726">9. Роман Ковалев</text>
<rect x="60" y="754" width="1080" height="58" rx="10" fill="#ffffff"/><text x="82" y="792">10. Виталий Исаков</text>
</g>
<text x="60" y="858" font-family="Arial,sans-serif" font-size="20" fill="#5d6d7e">Источник порядка: GAEO-T008 / TenChat. Это не официальный рейтинг Яндекса.</text>
</svg>